<svg xmlns="http://www.w3.org/2000/svg" width="186.923" height="288.796" viewBox="0 0 186.923 288.796">
  <g id="undraw_factory_dy0a" transform="translate(-498.141 0.002)">
    <path id="Path_15" data-name="Path 15" d="M751,409.116v78.589h30.562v-79.68l-7.095.253V392.2H769.32l-.848-35.614c2.077-1.353,3.538-4.567,3.538-8.319a13.638,13.638,0,0,0-.374-3.2,6.544,6.544,0,0,0,.7-7.97,6.548,6.548,0,1,0,8.486-9.974,6.55,6.55,0,1,0-8.818-6.145c0,.1,0,.191.007.286a6.553,6.553,0,0,0-8.392,5.274,6.549,6.549,0,1,0-4.71,12.035c0,.048,0,.095,0,.143a31.833,31.833,0,0,0,2.313,5.307,13.225,13.225,0,0,0-.676,4.244c0,3.752,1.461,6.966,3.538,8.319l-.848,35.614h-5.146v16.665Zm19.084-75.042h.017c.095,0,.188,0,.282-.007q.089.29.2.569A6.587,6.587,0,0,0,770.083,334.075Z" transform="translate(-191.917 -254.851)" fill="#e2e2e2"/>
    <rect id="Rectangle_29" data-name="Rectangle 29" width="92.778" height="107.332" transform="translate(635.033 288.794) rotate(180)" fill="#3f3d56"/>
    <rect id="Rectangle_30" data-name="Rectangle 30" width="25.014" height="21.83" transform="translate(601.151 288.794) rotate(180)" fill="#e2e2e2"/>
    <path id="Path_16" data-name="Path 16" d="M670.014,259.976c0,.079-.006.158-.006.237a10.881,10.881,0,0,0,3.31,7.825,10.927,10.927,0,0,0,.546,1.019,22.04,22.04,0,0,0-1.126,7.073c0,8.289,4.276,15.008,9.551,15.008s9.551-6.719,9.551-15.008a22.72,22.72,0,0,0-.622-5.331,10.906,10.906,0,0,0,1.174-13.284,10.913,10.913,0,1,0,14.144-16.623,10.916,10.916,0,1,0-14.7-10.241c0,.16.005.318.012.476a10.922,10.922,0,0,0-13.987,8.79,10.915,10.915,0,1,0-7.849,20.057Zm18.641-7.494c.157,0,.314-.005.47-.012q.147.484.337.948a10.943,10.943,0,0,0-.835-.936Z" transform="translate(-158.679 -219.737)" fill="#e2e2e2"/>
    <path id="Path_17" data-name="Path 17" d="M685.941,406.735h10.916l-.39-16.371v-.006l-1.429-60.03a6.981,6.981,0,0,1-7.28,0l-1.428,60.03v.006Z" transform="translate(-167.792 -260.747)" fill="#f7c443"/>
    <path id="Path_18" data-name="Path 18" d="M498.141,234.2V365.187h50.933v-132.8l-11.823.422v-26.8H509.963v27.772Z" transform="translate(0 -76.393)" fill="#f7c443"/>
    <path id="Path_19" data-name="Path 19" d="M876.745,259.976c0,.079-.006.158-.006.237a10.88,10.88,0,0,0,3.309,7.825,10.889,10.889,0,0,0,.546,1.019,22.04,22.04,0,0,0-1.126,7.073c0,8.289,4.276,15.008,9.551,15.008s9.551-6.719,9.551-15.008a22.723,22.723,0,0,0-.622-5.331,10.906,10.906,0,0,0,1.175-13.284,10.913,10.913,0,1,0,14.144-16.623,10.916,10.916,0,1,0-14.7-10.241c0,.16.005.318.012.476a10.922,10.922,0,0,0-13.987,8.79,10.915,10.915,0,1,0-7.849,20.057Zm18.641-7.494c.157,0,.314-.005.47-.012q.147.484.337.948a10.928,10.928,0,0,0-.835-.936Z" transform="translate(-235.339 -219.737)" fill="#e2e2e2"/>
    <path id="Path_20" data-name="Path 20" d="M892.674,406.736h10.915l-1.819-76.406a10.76,10.76,0,0,1-7.277,0Z" transform="translate(-244.452 -260.748)" fill="#f7c443"/>
    <path id="Path_21" data-name="Path 21" d="M704.871,234.2V365.187H755.81v-132.8l-4.184.151-7.645.271v-26.8H716.693v27.772Z" transform="translate(-76.659 -76.393)" fill="#f7c443"/>
    <rect id="Rectangle_31" data-name="Rectangle 31" width="12.584" height="12.584" transform="translate(615.07 207) rotate(180)" fill="#fff"/>
    <rect id="Rectangle_32" data-name="Rectangle 32" width="12.584" height="12.584" transform="translate(594.936 207) rotate(180)" fill="#fff"/>
    <rect id="Rectangle_33" data-name="Rectangle 33" width="12.584" height="12.584" transform="translate(574.802 207) rotate(180)" fill="#fff"/>
    <rect id="Rectangle_34" data-name="Rectangle 34" width="12.584" height="12.584" transform="translate(615.07 227.134) rotate(180)" fill="#fff"/>
    <rect id="Rectangle_35" data-name="Rectangle 35" width="12.584" height="12.584" transform="translate(594.936 227.134) rotate(180)" fill="#fff"/>
    <rect id="Rectangle_36" data-name="Rectangle 36" width="12.584" height="12.584" transform="translate(574.802 227.134) rotate(180)" fill="#fff"/>
    <rect id="Rectangle_37" data-name="Rectangle 37" width="12.584" height="12.584" transform="translate(615.07 247.268) rotate(180)" fill="#fff"/>
    <rect id="Rectangle_38" data-name="Rectangle 38" width="12.584" height="12.584" transform="translate(594.936 247.268) rotate(180)" fill="#fff"/>
    <rect id="Rectangle_39" data-name="Rectangle 39" width="12.584" height="12.584" transform="translate(574.802 247.268) rotate(180)" fill="#fff"/>
    <rect id="Rectangle_40" data-name="Rectangle 40" width="12.584" height="12.584" transform="translate(529.9 201.967) rotate(180)" fill="#fff"/>
    <rect id="Rectangle_41" data-name="Rectangle 41" width="12.584" height="12.584" transform="translate(529.9 222.101) rotate(180)" fill="#fff"/>
    <rect id="Rectangle_42" data-name="Rectangle 42" width="12.584" height="12.584" transform="translate(529.9 242.235) rotate(180)" fill="#fff"/>
    <rect id="Rectangle_43" data-name="Rectangle 43" width="12.584" height="12.584" transform="translate(529.9 262.368) rotate(180)" fill="#fff"/>
    <rect id="Rectangle_44" data-name="Rectangle 44" width="12.584" height="12.584" transform="translate(659.866 201.967) rotate(180)" fill="#fff"/>
    <rect id="Rectangle_45" data-name="Rectangle 45" width="12.584" height="12.584" transform="translate(659.866 222.101) rotate(180)" fill="#fff"/>
    <rect id="Rectangle_46" data-name="Rectangle 46" width="12.584" height="12.584" transform="translate(659.866 242.235) rotate(180)" fill="#fff"/>
    <rect id="Rectangle_47" data-name="Rectangle 47" width="12.584" height="12.584" transform="translate(659.866 262.368) rotate(180)" fill="#fff"/>
  </g>
</svg>
