<svg id="undraw_sign_in_e6hj" xmlns="http://www.w3.org/2000/svg" width="688.522" height="414.131" viewBox="0 0 688.522 414.131">
  <path id="Path_61" data-name="Path 61" d="M109.961,567.472l40.607-58.345L109.94,573.818l-.024,6.638q-4.344-.037-8.6-.283c-.013-1.507,3.439-84.439,3.292-85.939.2-.057.313-7.843.392-8.184L62.578,422.292l42.468,57.723.127,1.706,2.519-64.433L71.225,351.308l36.755,54.66c.014-.877,1.74-133.172,1.757-133.988.01.434.8,105.281.808,105.723l34.876-42.2-34.91,51.271-.178,57.667L142.7,388.673c-40.391,81.324-31.452,52.865-32.484,96.308l47.012-77.648-47.052,88.835Z" transform="translate(-62.363 -178.879)" fill="#d0cde1"/>
  <path id="Path_62" data-name="Path 62" d="M1095.892,676.718l16.922-24.314-16.931,26.958-.01,2.766q-1.81-.015-3.584-.118c-.005-.628,1.433-35.188,1.372-35.813.083-.024.13-3.269.163-3.411l-17.679-26.569,17.7,24.055.053.711,1.05-26.851-15.2-27.5,15.317,22.778c.006-.365.725-55.5.732-55.836,0,.181.334,43.873.337,44.057l14.534-17.587-14.547,21.366-.074,24.031,13.487-23.238c-16.832,33.89-13.107,22.03-13.537,40.134l19.591-32.358L1095.981,647Z" transform="translate(-427.066 -280.205)" fill="#d0cde1"/>
  <ellipse id="Ellipse_15" data-name="Ellipse 15" cx="343.136" cy="13.444" rx="343.136" ry="13.444" transform="translate(0 387.243)" fill="#d0cde1"/>
  <rect id="Rectangle_55" data-name="Rectangle 55" width="391.789" height="233.582" transform="translate(117.793 158.784)" fill="#3f3d56"/>
  <path id="Path_63" data-name="Path 63" d="M343.2,374.581a93.693,93.693,0,0,1-93.671,92.167c-1.1,0-2.2-.019-3.291-.058V374.581Z" transform="translate(-128.449 -215.797)" fill="#f7c443"/>
  <path id="Path_64" data-name="Path 64" d="M561.235,732.144H523.972a19.851,19.851,0,0,1,37.263,0Z" transform="translate(-228.382 -339.778)" fill="#f7c443"/>
  <path id="Path_65" data-name="Path 65" d="M837.185,550.721V629.4a39.386,39.386,0,0,1,0-78.678Z" transform="translate(-327.603 -279.176)" fill="#f7c443"/>
  <rect id="Rectangle_56" data-name="Rectangle 56" width="270.246" height="23.086" rx="11.543" transform="translate(178.904 243.662)" fill="#fff"/>
  <rect id="Rectangle_57" data-name="Rectangle 57" width="270.246" height="23.086" rx="11.543" transform="translate(178.904 289.155)" fill="#fff"/>
  <rect id="Rectangle_58" data-name="Rectangle 58" width="94.749" height="23.086" rx="11.543" transform="translate(354.401 334.649)" fill="#fff"/>
  <path id="Path_66" data-name="Path 66" d="M948.566,238.661s10.773,4.19,11.372,17.956-2.993,52.071-2.993,52.071,13.168,19.153,2.993,24.539-11.372-21.547-11.372-21.547L936.6,254.821S943.778,238.063,948.566,238.661Z" transform="translate(-376.853 -166.885)" fill="#a0616a"/>
  <path id="Path_67" data-name="Path 67" d="M768.067,263.647s-25.736,16.759-26.933,3.591,7.781-64.64,7.781-64.64,1.2-22.145,13.766-16.759-3.591,23.941-3.591,23.941l1.8,41.9,11.971-.6Z" transform="translate(-306.482 -147.58)" fill="#a0616a"/>
  <path id="Path_68" data-name="Path 68" d="M805.635,325.574s-79-29.328-74.815,4.788,24.539,77.209,24.539,77.209l7.182,11.372h14.963L767.929,357.3s34.116,19.153,44.291,16.16c0,0,13.167,87.983,17.956,94.567s13.167,86.187,13.167,86.187l7.781,9.576h14.963V429.118s25.737-83.793,5.985-87.983S805.635,325.574,805.635,325.574Z" transform="translate(-302.753 -193.945)" fill="#2f2e41"/>
  <path id="Path_69" data-name="Path 69" d="M751.96,464.213s-3.591-6.584-9.576,0-20.35,14.365-20.35,14.365-31.123,7.182-5.985,13.168,28.131,0,28.131,0,4.19,1.2,7.781,2.394,26.934-2.993,26.934-6.584-7.924-25.053-11.145-21.8S751.96,464.213,751.96,464.213Z" transform="translate(-293.967 -246.996)" fill="#2f2e41"/>
  <path id="Path_70" data-name="Path 70" d="M899.487,691.884s-8.825-7.268-10.9-5.191-12.978,16.092-12.978,16.092-29.07,22.322-2.6,25.956,24.917-6.229,24.917-6.229h8.306c1.038,0,15.054-6.229,14.535-8.825s-6.748-23.761-8.825-22.263S899.487,691.884,899.487,691.884Z" transform="translate(-349.97 -327.967)" fill="#2f2e41"/>
  <circle id="Ellipse_16" data-name="Ellipse 16" cx="20.35" cy="20.35" r="20.35" transform="translate(449.016 8.333)" fill="#a0616a"/>
  <path id="Path_71" data-name="Path 71" d="M810.795,167.615s15.561,13.167,26.335,13.167-15.562,24.539-15.562,24.539l-23.342-20.948Z" transform="translate(-327.065 -141.326)" fill="#a0616a"/>
  <path id="Path_72" data-name="Path 72" d="M807.529,205.6l-.466-4.715s11.838-21.021,15.429-22.817a14.858,14.858,0,0,1,5.985-1.8s11.97-12.569,25.138-5.985,44.291,48.48,44.291,48.48-22.145,1.8-19.153,19.153c0,0,22.145,56.86,16.16,57.458s-23.941-3.591-42.495,4.788-26.933,2.993-26.933,2.993l-9.576-31.123s-17.956-10.175-17.357-19.153L772.515,264.55l2.394-22.145L790.77,224.15S787.777,221.756,807.529,205.6Z" transform="translate(-317.813 -141.6)" fill="#575a89"/>
  <path id="Path_73" data-name="Path 73" d="M760.452,157.433a7.513,7.513,0,0,1-2.955,2.013,2.578,2.578,0,0,1-3.081-1.186l.861-1.12-2.58-1.6,1.124-1.319-2.078-2.256,1.64-1.3-3.122-2.233c4.047-6.6,8.423-13.289,14.812-17.666s15.316-5.933,21.861-1.792c3.4,2.15,5.8,5.561,7.726,9.092,3.871,7.1,7.283,14.02,7.787,22.091-2.431-2.368-5.981-3.7-8.413-6.07a18.22,18.22,0,0,0-3.629-2.971c-2.543-1.434-5.586-1.561-8.433-2.208a12.67,12.67,0,0,1-5.759-3.166c-2.155-1.835-2.242-1.126-4.418.941Q766.126,152.059,760.452,157.433Z" transform="translate(-309.806 -126.55)" fill="#2f2e41"/>
</svg>
