<svg id="undraw_welcome_cats_thqn" xmlns="http://www.w3.org/2000/svg" width="687" height="354.968" viewBox="0 0 687 354.968">
  <ellipse id="Ellipse_1" data-name="Ellipse 1" cx="343.5" cy="9.608" rx="343.5" ry="9.608" transform="translate(0 298.062)" fill="#e6e6e6"/>
  <path id="Path_24" data-name="Path 24" d="M825.526,461.375c-.434.006-.867.012-1.307.012s-.873-.006-1.307-.012c-22.994-.523-39.66-14.89-35.418-29.963l10.344-36.772,2.614-9.3,46.344.79,2.816,9.1L860.7,431.055C865.394,446.212,848.728,460.852,825.526,461.375Z" transform="translate(-298.965 -257.818)" fill="#3f3d56"/>
  <path id="Path_25" data-name="Path 25" d="M852.85,395.227a51.154,51.154,0,0,1-51.775-.588l2.614-9.3,46.344.79Z" transform="translate(-302.202 -257.818)" opacity="0.2"/>
  <path id="Path_26" data-name="Path 26" d="M865.323,424.357c2-7.461,8.582-18.225,27.035-31.2,32.182-22.636,12.984-39.609,12.152-40.32-1.745-1.492-1.487-3.167.6-3.739a8.673,8.673,0,0,1,6.981,1.625c1.042.862,25.082,21.391-11.233,46.93-32.682,22.988-25.733,37.994-25.653,38.138.876,1.6-.529,2.889-3.14,2.872s-5.439-1.331-6.318-2.934C865.561,435.387,863.458,431.3,865.323,424.357Z" transform="translate(-316.63 -249.543)" fill="#3f3d56"/>
  <path id="Path_27" data-name="Path 27" d="M805.961,480.716a5.347,5.347,0,0,1-5.347-5.348V452.2a5.347,5.347,0,0,1,10.695,0v23.172a5.347,5.347,0,0,1-5.347,5.347Z" transform="translate(-302.097 -271.799)" fill="#3f3d56"/>
  <path id="Path_28" data-name="Path 28" d="M804.408,414.4a5.347,5.347,0,0,1-7.093,2.623l-21.051-9.685a5.347,5.347,0,0,1,4.47-9.716l21.051,9.685a5.347,5.347,0,0,1,2.623,7.093Z" transform="translate(-295.855 -260.5)" fill="#3f3d56"/>
  <path id="Path_29" data-name="Path 29" d="M856.685,414.4a5.347,5.347,0,0,0,7.093,2.623l21.051-9.685a5.347,5.347,0,0,0-4.47-9.716l-21.051,9.685a5.347,5.347,0,0,0-2.623,7.093Z" transform="translate(-314.73 -260.5)" fill="#3f3d56"/>
  <path id="Path_30" data-name="Path 30" d="M861.324,480.716a5.347,5.347,0,0,0,5.347-5.348V452.2a5.347,5.347,0,0,0-10.695,0v23.172a5.347,5.347,0,0,0,5.348,5.347Z" transform="translate(-314.68 -271.799)" fill="#3f3d56"/>
  <path id="Path_31" data-name="Path 31" d="M863.927,283.926a5.258,5.258,0,0,0,1.061-4.179l-2.91-17.121-2.91-17.121a5.342,5.342,0,0,0-8.675-3.218l-13.372,11.081-8.056,6.676A50.762,50.762,0,0,0,812.8,259.8l-7.76-6.431-13.372-11.081a5.342,5.342,0,0,0-8.675,3.218l-2.91,17.121-2.91,17.121a5.289,5.289,0,0,0,.233,2.684,51.09,51.09,0,1,0,86.52,1.495Z" transform="translate(-294.936 -225.026)" fill="#3f3d56"/>
  <path id="Path_32" data-name="Path 32" d="M794.753,251.728a2.662,2.662,0,0,0-.929.169,2.618,2.618,0,0,0-1.688,2.036L788.607,274.7a2.645,2.645,0,0,0,3.527,2.923l19.745-7.325a2.644,2.644,0,0,0,.768-4.515h0L796.431,252.34a2.621,2.621,0,0,0-1.678-.612Z" transform="translate(-299.359 -227.451)" fill="#e6e6e6"/>
  <path id="Path_33" data-name="Path 33" d="M870.621,251.728a2.621,2.621,0,0,0-1.678.612l-16.216,13.438a2.644,2.644,0,0,0,.768,4.515l19.745,7.325a2.645,2.645,0,0,0,3.527-2.923l-3.529-20.762a2.618,2.618,0,0,0-1.688-2.036A2.664,2.664,0,0,0,870.621,251.728Z" transform="translate(-313.724 -227.451)" fill="#e6e6e6"/>
  <circle id="Ellipse_2" data-name="Ellipse 2" cx="7.13" cy="7.13" r="7.13" transform="translate(518.124 85.331)" fill="#e6e6e6"/>
  <ellipse id="Ellipse_3" data-name="Ellipse 3" cx="4.753" cy="1.782" rx="4.753" ry="1.782" transform="translate(520.501 87.114)" fill="#3f3d56"/>
  <path id="Path_34" data-name="Path 34" d="M675.14,125.04h6.536v8.021a3.268,3.268,0,0,1-3.268,3.268h0a3.268,3.268,0,0,1-3.268-3.268Z" transform="translate(-153.451 -28.42)" fill="#ff6584"/>
  <path id="Path_35" data-name="Path 35" d="M834.228,240.69c-.343.711-.676,1.429-.989,2.162a50.859,50.859,0,0,0-3.594,27.311c.669-.971,1.372-1.982,2.087-3a50.824,50.824,0,0,1,2.5-26.469Z" transform="translate(-308.577 -224.942)" fill="#3f3d56"/>
  <path id="Path_36" data-name="Path 36" d="M841.148,249.148c-.343.711-.675,1.429-.988,2.162a50.858,50.858,0,0,0-3.594,27.311c.669-.971,1.372-1.982,2.087-3a50.826,50.826,0,0,1,2.5-26.469Z" transform="translate(-310.15 -226.865)" fill="#3f3d56"/>
  <path id="Path_37" data-name="Path 37" d="M850.555,408.762l-.753-9.58-.753-9.58a2.956,2.956,0,0,0-4.621-2.2l-7.92,5.442-5.783,3.974a3.937,3.937,0,0,0-5.988,0l-5.784-3.974-7.92-5.442a2.956,2.956,0,0,0-4.621,2.2l-.753,9.58-.753,9.58a2.956,2.956,0,0,0,4.219,2.9l8.673-4.138,7.126-3.4a3.942,3.942,0,0,0,5.611,0l7.126,3.4,8.673,4.138a2.956,2.956,0,0,0,4.22-2.9Z" transform="translate(-303.07 -258.169)" fill="#f7c443"/>
  <circle id="Ellipse_4" data-name="Ellipse 4" cx="1.782" cy="1.782" r="1.782" transform="translate(513.965 82.955)" fill="#e6e6e6"/>
  <circle id="Ellipse_5" data-name="Ellipse 5" cx="1.782" cy="1.782" r="1.782" transform="translate(532.978 82.955)" fill="#e6e6e6"/>
  <path id="Path_38" data-name="Path 38" d="M378.308,441c.434.006.867.012,1.307.012s.873-.006,1.307-.012c22.994-.523,39.66-14.89,35.418-29.963L406,374.259l-2.614-9.3-46.344.79-2.816,9.1-11.087,35.828C338.44,425.832,355.106,440.472,378.308,441Z" transform="translate(-197.937 -253.186)" fill="#3f3d56"/>
  <path id="Path_39" data-name="Path 39" d="M357.715,374.848a51.154,51.154,0,0,0,51.775-.588l-2.614-9.3-46.344.79Z" transform="translate(-201.432 -253.186)" opacity="0.2"/>
  <path id="Path_40" data-name="Path 40" d="M330.607,405.505c-5-5.887-15.555-12.8-37.786-16.633-38.773-6.689-28.684-30.244-28.236-31.242.939-2.095-.011-3.5-2.141-3.123a8.673,8.673,0,0,0-5.614,4.456c-.573,1.225-13.516,30.066,30.234,37.61,39.375,6.792,39.516,23.328,39.505,23.493-.1,1.825,1.714,2.385,4.066,1.252s4.347-3.531,4.455-5.356C335.112,415.576,335.265,410.985,330.607,405.505Z" transform="translate(-177.997 -250.798)" fill="#3f3d56"/>
  <path id="Path_41" data-name="Path 41" d="M416.688,460.336a5.347,5.347,0,0,0,5.347-5.347V431.816a5.347,5.347,0,0,0-10.695,0v23.172a5.347,5.347,0,0,0,5.348,5.347Z" transform="translate(-213.62 -267.168)" fill="#3f3d56"/>
  <path id="Path_42" data-name="Path 42" d="M412.049,394.025a5.347,5.347,0,0,0,7.093,2.623l21.051-9.685a5.347,5.347,0,1,0-4.47-9.716l-21.051,9.685A5.347,5.347,0,0,0,412.049,394.025Z" transform="translate(-213.669 -255.868)" fill="#3f3d56"/>
  <path id="Path_43" data-name="Path 43" d="M359.771,394.025a5.347,5.347,0,0,1-7.093,2.623l-21.051-9.685a5.347,5.347,0,1,1,4.47-9.716l21.051,9.685A5.347,5.347,0,0,1,359.771,394.025Z" transform="translate(-194.795 -255.868)" fill="#3f3d56"/>
  <path id="Path_44" data-name="Path 44" d="M361.325,460.336a5.347,5.347,0,0,1-5.347-5.347V431.816a5.347,5.347,0,0,1,10.695,0v23.172a5.347,5.347,0,0,1-5.348,5.347Z" transform="translate(-201.037 -267.168)" fill="#3f3d56"/>
  <path id="Path_45" data-name="Path 45" d="M418.327,262.051a5.288,5.288,0,0,0,.233-2.684l-2.91-17.121-2.91-17.121a5.342,5.342,0,0,0-8.675-3.218l-13.372,11.081-7.76,6.431a50.763,50.763,0,0,0-16.263.245l-8.056-6.676-13.372-11.081a5.342,5.342,0,0,0-8.675,3.218l-2.91,17.121-2.91,17.121a5.259,5.259,0,0,0,1.061,4.179,51.1,51.1,0,1,0,86.52-1.495Z" transform="translate(-193.866 -220.394)" fill="#3f3d56"/>
  <path id="Path_46" data-name="Path 46" d="M422,231.96,405.784,245.4h0a2.644,2.644,0,0,0,.768,4.515l19.745,7.325a2.645,2.645,0,0,0,3.527-2.923l-3.529-20.762a2.618,2.618,0,0,0-1.688-2.036,2.663,2.663,0,0,0-.929-.169,2.621,2.621,0,0,0-1.678.612Z" transform="translate(-212.14 -222.819)" fill="#e6e6e6"/>
  <path id="Path_47" data-name="Path 47" d="M346.881,231.517a2.618,2.618,0,0,0-1.688,2.036l-3.529,20.762a2.645,2.645,0,0,0,3.527,2.923l19.745-7.325a2.644,2.644,0,0,0,.768-4.515L349.488,231.96a2.621,2.621,0,0,0-1.678-.612,2.663,2.663,0,0,0-.929.169Z" transform="translate(-197.775 -222.819)" fill="#e6e6e6"/>
  <circle id="Ellipse_6" data-name="Ellipse 6" cx="7.13" cy="7.13" r="7.13" transform="translate(174.548 69.584)" fill="#e6e6e6"/>
  <ellipse id="Ellipse_7" data-name="Ellipse 7" cx="4.753" cy="1.782" rx="4.753" ry="1.782" transform="translate(176.925 71.366)" fill="#3f3d56"/>
  <path id="Path_48" data-name="Path 48" d="M3.268,0h0A3.268,3.268,0,0,1,6.536,3.268v8.021H0V3.268A3.268,3.268,0,0,1,3.268,0Z" transform="translate(185.243 92.162) rotate(180)" fill="#ff6584"/>
  <path id="Path_49" data-name="Path 49" d="M390.066,220.31c.343.711.675,1.429.988,2.162a50.858,50.858,0,0,1,3.594,27.311c-.669-.971-1.372-1.982-2.087-3a50.825,50.825,0,0,0-2.5-26.469Z" transform="translate(-208.785 -220.31)" fill="#3f3d56"/>
  <path id="Path_50" data-name="Path 50" d="M383.146,228.768c.343.711.675,1.429.988,2.162a50.858,50.858,0,0,1,3.594,27.311c-.669-.971-1.372-1.982-2.087-3A50.826,50.826,0,0,0,383.146,228.768Z" transform="translate(-207.212 -222.233)" fill="#3f3d56"/>
  <path id="Path_51" data-name="Path 51" d="M361.807,253.82l.753-9.58.753-9.58a2.956,2.956,0,0,1,4.621-2.2l7.92,5.442,5.783,3.974a3.937,3.937,0,0,1,5.988,0l5.783-3.974,7.92-5.442a2.956,2.956,0,0,1,4.621,2.2l.753,9.58.753,9.58a2.956,2.956,0,0,1-4.219,2.9l-8.673-4.138-7.126-3.4a3.942,3.942,0,0,1-5.611,0l-7.126,3.4-8.673,4.138a2.956,2.956,0,0,1-4.219-2.9Z" transform="translate(-202.36 -222.953)" fill="#f7c443"/>
  <path id="Path_52" data-name="Path 52" d="M400.575,309.068c0,.984.8,0,1.782,0s1.782.984,1.782,0a1.782,1.782,0,0,0-3.565,0Z" transform="translate(-211.173 -240.079)" fill="#e6e6e6"/>
  <path id="Path_53" data-name="Path 53" d="M379.535,309.068c0,.984-.8,0-1.782,0s-1.782.984-1.782,0a1.782,1.782,0,0,1,3.565,0Z" transform="translate(-205.581 -240.079)" fill="#e6e6e6"/>
  <path id="Path_54" data-name="Path 54" d="M464.387,260.118v-11.33H407.736V362.8h56.651v-11.33h-45.32V260.118Z" transform="translate(-92.673 -56.546)" fill="#3f3d56"/>
  <path id="Path_55" data-name="Path 55" d="M672.253,469.1V583.108H728.9V469.1Zm45.32,102.679h-33.99V480.429h33.99Z" transform="translate(-272.922 -276.857)" fill="#f7c443"/>
  <path id="Path_56" data-name="Path 56" d="M310.011,351.676V249.7h-11.33v113.3h56.651v-11.33Z" transform="translate(-67.886 -56.755)" fill="#f7c443"/>
  <path id="Path_57" data-name="Path 57" d="M249.027,260.118v-11.33H192.376V362.8h56.651v-11.33h-45.32V311.1h45.32v-11.33h-45.32V260.118Z" transform="translate(-43.725 -56.546)" fill="#3f3d56"/>
  <path id="Path_58" data-name="Path 58" d="M822.709,260.118v-11.33H766.058V362.8h56.651v-11.33h-45.32V311.1h45.32v-11.33h-45.32V260.118Z" transform="translate(-174.115 -56.546)" fill="#f7c443"/>
  <path id="Path_59" data-name="Path 59" d="M121.747,249.6v93.641L91.874,313.369l-.068.069-.063-.063L61.2,343.914V249.247H49.872v113.3H61.2v-2.611l30.609-30.609,29.936,29.937V362.9h11.33V249.6Z" transform="translate(-11.335 -56.651)" fill="#3f3d56"/>
  <path id="Path_60" data-name="Path 60" d="M696.346,249.6v2.61L665.737,282.82,635.8,252.883v-3.636H624.47v113.3H635.8V268.906l29.874,29.874.069-.069.063.063,30.541-30.54V362.9h11.33V249.6Z" transform="translate(-141.934 -56.651)" fill="#3f3d56"/>
  <circle id="Ellipse_8" data-name="Ellipse 8" cx="6.954" cy="6.954" r="6.954" transform="translate(251.963 109.246)" fill="#f7c443"/>
  <circle id="Ellipse_9" data-name="Ellipse 9" cx="6.954" cy="6.954" r="6.954" transform="translate(80.421 186.517)" fill="#f7c443"/>
  <circle id="Ellipse_10" data-name="Ellipse 10" cx="6.954" cy="6.954" r="6.954" transform="translate(217.963 341.06)" fill="#f7c443"/>
  <circle id="Ellipse_11" data-name="Ellipse 11" cx="6.954" cy="6.954" r="6.954" transform="translate(392.596 130.109)" fill="#f7c443"/>
  <circle id="Ellipse_12" data-name="Ellipse 12" cx="6.954" cy="6.954" r="6.954" transform="translate(597.365 334.878)" fill="#f7c443"/>
  <circle id="Ellipse_13" data-name="Ellipse 13" cx="6.954" cy="6.954" r="6.954" transform="translate(604.32 152.518)" fill="#f7c443"/>
  <circle id="Ellipse_14" data-name="Ellipse 14" cx="6.954" cy="6.954" r="6.954" transform="translate(516.23 277.697)" fill="#f7c443"/>
</svg>
